<?xml version="1.0" standalone="no"?><!DOCTYPE svg PUBLIC "-//W3C//DTD SVG 1.1//EN" "http://www.w3.org/Graphics/SVG/1.1/DTD/svg11.dtd"><svg t="1755850607129" class="icon" viewBox="0 0 1024 1024" version="1.1" xmlns="http://www.w3.org/2000/svg" p-id="1092" xmlns:xlink="http://www.w3.org/1999/xlink" width="200" height="200"><path d="M768.1 152.7L663.9 280 525.8 448.7 387.6 280 283.4 152.7c-23.4 14.7-39 40.5-39 70.2 0 20.2 7.5 38.5 19.5 52.9-0.9-1.1-2.1-2-3-3.2l-6.5-7.9 211 257.7 60.3 73.7 60.3-73.7 202.5-247.3 0.4-0.4c0.1-0.2 0.2-0.3 0.3-0.5l1-1.3c-0.2 0.2-0.4 0.4-0.6 0.7 0.5-0.7 0.9-1.4 1.4-2.1 1.1-1.6 2.2-3.2 3.2-4.8 1.7-2.7 3.1-5.4 4.5-8.3 0.8-1.7 1.7-3.4 2.4-5.2 1.3-3.2 2.2-6.5 3.1-9.9 0.4-1.6 1-3.2 1.3-4.8 1-5.1 1.6-10.3 1.6-15.7 0-29.6-15.6-55.4-39-70.1zM526.5 542.6c-17.3 0-31.4-14.1-31.4-31.4 0-17.3 14.1-31.4 31.4-31.4 17.3 0 31.4 14.1 31.4 31.4 0 17.4-14.1 31.4-31.4 31.4z m216.9-239c1.5-0.3 2.7-1.1 4.2-1.5 0.1 0 0.2-0.1 0.4-0.1-1.6 0.5-3 1.3-4.6 1.6z m17.7-6.4c1.2-0.6 2.2-1.5 3.4-2.2l0.6-0.3c-1.4 0.8-2.6 1.8-4 2.5z m15.6-10.2c0.8-0.6 1.4-1.5 2.1-2.1 0.2-0.2 0.5-0.4 0.7-0.6-0.9 0.9-1.8 1.9-2.8 2.7zM334 513.3c-90.9 0-164.5 73.7-164.5 164.5 0 90.9 73.7 164.5 164.5 164.5s164.5-73.7 164.5-164.5c0.1-90.8-73.6-164.5-164.5-164.5z m0 257.3c-51.2 0-92.8-41.5-92.8-92.8S282.8 585 334 585s92.8 41.5 92.8 92.8-41.5 92.8-92.8 92.8zM717.5 513.3C626.7 513.3 553 587 553 677.8c0 90.9 73.7 164.5 164.5 164.5S882 768.6 882 677.8c0.1-90.8-73.6-164.5-164.5-164.5z m0 257.3c-51.2 0-92.8-41.5-92.8-92.8s41.5-92.8 92.8-92.8c51.2 0 92.8 41.5 92.8 92.8s-41.5 92.8-92.8 92.8z" fill="#3E88C8" p-id="1093"></path></svg>