<?xml version="1.0" standalone="no"?><!DOCTYPE svg PUBLIC "-//W3C//DTD SVG 1.1//EN" "http://www.w3.org/Graphics/SVG/1.1/DTD/svg11.dtd"><svg t="1755851627288" class="icon" viewBox="0 0 1024 1024" version="1.1" xmlns="http://www.w3.org/2000/svg" p-id="35974" xmlns:xlink="http://www.w3.org/1999/xlink" width="200" height="200"><path d="M329.142857 365.714286a402.285714 402.285714 0 0 1 342.308572 613.668571 468.041143 468.041143 0 0 1-161.133715 28.233143c-242.322286 0-371.2-154.038857-371.2-396.434286 0-82.870857 21.211429-159.085714 58.88-223.597714A401.993143 401.993143 0 0 1 329.142857 365.714286z" fill="#00E7A1" opacity=".5" p-id="35975"></path><path d="M226.742857 327.972571l51.2 54.857143C213.284571 479.670857 181.174857 559.835429 181.174857 621.714286a329.142857 329.142857 0 0 0 548.571429 245.394285l49.810285 53.540572A402.285714 402.285714 0 0 1 108.105143 621.714286c0-80.457143 39.497143-178.395429 118.637714-293.741715z m12.507429-207.506285l702.025143 769.170285a36.571429 36.571429 0 1 1-53.979429 49.298286L185.270857 169.764571a36.571429 36.571429 0 0 1 53.979429-49.298285z m129.755428 497.664a208.237714 208.237714 0 0 0 36.571429 71.533714c26.112 33.133714 47.104 46.153143 58.514286 49.078857l3.072 0.585143a36.571429 36.571429 0 0 1-8.045715 72.704c-29.403429-3.218286-69.851429-24.941714-111.030857-77.019429a277.357714 277.357714 0 0 1-49.956571-98.742857 36.571429 36.571429 0 0 1 70.948571-18.139428zM510.317714 0c268.214857 266.386286 402.285714 473.6 402.285715 621.714286 0 36.278857-4.754286 71.460571-13.824 104.96l-61.586286-66.048c1.462857-12.8 2.267429-25.746286 2.267428-38.912 0-107.52-96.914286-270.409143-293.595428-480.329143l-35.547429-37.302857-14.848 15.433143c-28.891429 30.354286-55.881143 59.684571-80.749714 88.064l-50.249143-53.686858A3249.737143 3249.737143 0 0 1 510.317714 0z" fill="#333333" p-id="35976"></path></svg>