<?xml version="1.0" standalone="no"?><!DOCTYPE svg PUBLIC "-//W3C//DTD SVG 1.1//EN" "http://www.w3.org/Graphics/SVG/1.1/DTD/svg11.dtd"><svg t="1756263853834" class="icon" viewBox="0 0 1024 1024" version="1.1" xmlns="http://www.w3.org/2000/svg" p-id="13543" xmlns:xlink="http://www.w3.org/1999/xlink" width="256" height="256"><path d="M749.714286 548.790857a256.731429 256.731429 0 0 1 111.908571 25.746286V264.923429L617.618286 0.877714H185.709714C124.269714 0.804571 74.313143 51.273143 74.313143 113.737143v715.995428c0 62.317714 49.737143 113.005714 111.396571 113.005715h332.434286a268.288 268.288 0 0 1-31.670857-126.976c0-147.236571 118.052571-266.971429 263.241143-266.971429zM621.129143 61.44l194.56 203.337143h-194.56V61.44zM467.968 655.652571H158.793143v-60.708571h309.174857v60.708571z m-309.174857-212.114285v-60.708572h578.56v60.708572H158.72z" fill="#1989FA" p-id="13544"></path><path d="M929.645714 794.331429l-33.060571-7.314286-0.731429-2.486857a138.313143 138.313143 0 0 0-8.630857-21.284572l-1.170286-2.340571 17.773715-29.769143c5.339429-8.777143 7.606857-20.918857 0.585143-28.086857l-16.603429-16.822857a18.212571 18.212571 0 0 0-13.385143-5.046857 27.062857 27.062857 0 0 0-14.848 4.681142l-28.818286 18.505143-2.267428-1.097143a149.430857 149.430857 0 0 0-20.772572-8.923428l-2.486857-0.731429-7.460571-33.718857c-1.682286-9.508571-9.947429-19.894857-20.187429-19.894857H754.102857c-9.947429 0-16.822857 10.24-19.017143 20.260571l-8.265143 33.28-2.486857 0.731429a146.505143 146.505143 0 0 0-22.089143 9.508571l-2.340571 1.462858-29.330286-19.017143a26.624 26.624 0 0 0-14.921143-4.681143 19.017143 19.017143 0 0 0-13.312 5.12l-16.603428 16.822857c-7.094857 7.094857-4.754286 19.090286 0.585143 28.013714l18.505143 31.305143-1.170286 2.340572a128.292571 128.292571 0 0 0-8.045714 19.968l-0.731429 2.486857-32.841143 7.314285c-9.289143 1.755429-19.456 10.093714-19.456 20.553143v23.771429c0 10.093714 9.947429 17.042286 20.041143 19.382857l32.987429 8.338286 0.731428 2.486857c1.974857 5.997714 4.388571 11.995429 7.533714 18.432l1.097143 2.267428-18.505143 31.378286c-5.339429 8.704-7.606857 20.699429-0.585142 27.794286l16.603428 16.896c4.242286 4.242286 9.508571 5.046857 13.385143 5.046857a27.062857 27.062857 0 0 0 14.848-4.681143l29.549714-19.163428 2.340572 1.389714c7.241143 3.876571 14.628571 7.168 22.308571 9.508571l2.486857 0.731429 8.192 33.133714c2.267429 10.020571 8.923429 20.260571 19.017143 20.260572h23.478857c10.313143 0 18.505143-10.24 20.260572-19.748572l7.460571-33.645714 2.413714-0.731429c6.875429-2.340571 13.750857-5.266286 20.626286-8.777143l2.267429-1.097142 28.818285 18.578285c4.022857 2.925714 9.508571 4.608 14.921143 4.608a18.432 18.432 0 0 0 13.312-5.193143l16.603429-16.822857c7.094857-7.168 4.754286-19.163429-0.585143-27.867428l-17.700571-29.988572 1.097142-2.340571c3.291429-6.582857 6.144-13.165714 8.192-19.748572l0.731429-2.56 33.060571-8.265142c9.947429-2.340571 20.041143-9.142857 20.041143-19.382858v-23.771428c-0.585143-11.264-10.678857-19.529143-20.041143-21.284572z m-163.913143 124.123428a91.867429 91.867429 0 0 1-91.209142-92.525714c0-51.126857 40.813714-92.525714 91.209142-92.525714 50.322286 0 91.136 41.398857 91.136 92.525714 0 51.053714-40.813714 92.525714-91.136 92.525714z" fill="#1989FA" p-id="13545"></path></svg>