<?xml version="1.0" standalone="no"?><!DOCTYPE svg PUBLIC "-//W3C//DTD SVG 1.1//EN" "http://www.w3.org/Graphics/SVG/1.1/DTD/svg11.dtd"><svg t="1755851505411" class="icon" viewBox="0 0 1025 1024" version="1.1" xmlns="http://www.w3.org/2000/svg" p-id="26505" xmlns:xlink="http://www.w3.org/1999/xlink" width="200.1953125" height="200"><path d="M508.232776 935.413155C277.861315 935.413155 91.098328 748.650167 91.098328 518.278707S277.861315 101.258417 508.232776 101.258417h3.196432V19.863545H19.178595v994.889632H511.429208v-79.340022h-3.196432zM514.511483 102.628317v834.154738c230.37146 0 417.134448-186.762988 417.134448-417.134449S744.882943 102.628317 514.511483 102.628317z" fill="#6090FF" p-id="26506"></path><path d="M985.186176 1.141583H39.955407C18.607804 1.141583 1.141583 18.607804 1.141583 39.955407v945.230769c0 21.347603 17.466221 38.813824 38.813824 38.813824h945.230769c21.347603 0 38.813824-17.466221 38.813824-38.813824V39.955407c0-21.347603-17.466221-38.813824-38.813824-38.813824z m-27.283835 917.946934c0 21.347603-17.466221 38.813824-38.813824 38.813824H106.053066c-21.347603 0-38.813824-17.466221-38.813824-38.813824V106.053066c0-21.347603 17.466221-38.813824 38.813824-38.813824H918.974359c21.347603 0 38.813824 17.466221 38.813824 38.813824v813.035451z" fill="#6090FF" p-id="26507"></path></svg>