<?xml version="1.0" standalone="no"?><!DOCTYPE svg PUBLIC "-//W3C//DTD SVG 1.1//EN" "http://www.w3.org/Graphics/SVG/1.1/DTD/svg11.dtd"><svg t="1755851519820" class="icon" viewBox="0 0 1024 1024" version="1.1" xmlns="http://www.w3.org/2000/svg" p-id="27491" xmlns:xlink="http://www.w3.org/1999/xlink" width="200" height="200"><path d="M332.8 512h358.4c17.6 0 25.6 8 25.6 25.6s-8 25.6-25.6 25.6H332.8c-17.6 0-25.6-8-25.6-25.6s8-25.6 25.6-25.6z" fill="#0066CC" p-id="27492"></path><path d="M232 520l145.6-91.2c9.6-6.4 22.4-3.2 28.8 6.4 1.6 3.2 3.2 6.4 3.2 11.2v182.4c0 11.2-9.6 20.8-20.8 20.8-3.2 0-8-1.6-11.2-3.2l-145.6-91.2c-9.6-6.4-12.8-19.2-6.4-28.8l6.4-6.4z m560 0l-145.6-91.2c-9.6-6.4-22.4-3.2-28.8 6.4-1.6 3.2-3.2 6.4-3.2 11.2v182.4c0 11.2 9.6 20.8 20.8 20.8 3.2 0 8-1.6 11.2-3.2l145.6-91.2c9.6-6.4 12.8-19.2 6.4-28.8l-6.4-6.4z" fill="#0066CC" p-id="27493"></path><path d="M153.6 102.4h716.8c56 0 102.4 46.4 102.4 102.4v614.4c0 56-46.4 102.4-102.4 102.4H153.6c-56 0-102.4-46.4-102.4-102.4V204.8c0-56 46.4-102.4 102.4-102.4z m0 102.4v614.4h716.8V204.8H153.6z" fill="#0066CC" p-id="27494"></path></svg>