<?xml version="1.0" standalone="no"?><!DOCTYPE svg PUBLIC "-//W3C//DTD SVG 1.1//EN" "http://www.w3.org/Graphics/SVG/1.1/DTD/svg11.dtd"><svg t="1755851341986" class="icon" viewBox="0 0 1024 1024" version="1.1" xmlns="http://www.w3.org/2000/svg" p-id="12727" xmlns:xlink="http://www.w3.org/1999/xlink" width="200" height="200"><path d="M457.32243172 547.40613022h109.85497213l-54.86417357-143.22843767-54.99079856 143.22843767zM891.47738556 24.38263374H132.48484913C90.78301221 24.38263374 56.59425929 60.95060397 56.59425929 105.64034684v812.71708485c0 44.7008503 34.18875293 81.25993457 75.89058984 81.25993457h758.99253643c41.77514611 0 75.92835518-36.55908427 75.92835515-81.25993457V105.64034684c0-44.68974286-34.15320906-81.2577131-75.92835515-81.2577131zM843.1799406 789.03997324H584.18958513v-10.7609044c35.37058638-1.97934886 53.06032252-13.10902086 53.06032253-33.39345899 0-3.21227659-0.55537284-7.72856865-1.67056156-13.5444332a221.96031503 221.96031503 0 0 0-4.45186883-18.55389629c-1.85494533-6.54895669-3.03233577-10.57429915-3.52550689-12.05825544l-45.63831966-116.13734986h-139.46967421l-45.36285475 115.17544407c-0.49539259 1.48173477-1.67278305 5.50263425-3.52994986 12.04714794a220.56299694 220.56299694 0 0 0-4.46075477 18.53612442c-1.11296722 5.80920003-1.67056156 10.32104913-1.67056156 13.53110422 0 20.26666622 17.71195107 31.38967374 53.13141025 33.36457963v10.75201844h-18.18957171v1.04410097h-163.99938246v-1.04410097h-77.15461846v-10.75201844c19.57133939-3.20783361 36.04147678-9.32582098 49.41485513-18.34951914 13.37559985-9.01925515 25.02287936-25.63823245 34.92850954-49.85915337l183.919496-472.28463249h70.96554336l0.19326977 0.54426538h54.60425902l183.66846749 472.71115888c9.89007978 24.24535734 21.52180887 40.87766359 34.87741527 49.90580466 13.35782791 9.03036261 29.80575034 15.15279294 49.35043183 18.36729109v10.75868289z" fill="#0F6CF9" p-id="12728"></path></svg>