<?xml version="1.0" standalone="no"?><!DOCTYPE svg PUBLIC "-//W3C//DTD SVG 1.1//EN" "http://www.w3.org/Graphics/SVG/1.1/DTD/svg11.dtd"><svg t="1755855459386" class="icon" viewBox="0 0 1024 1024" version="1.1" xmlns="http://www.w3.org/2000/svg" p-id="24719" xmlns:xlink="http://www.w3.org/1999/xlink" width="200" height="200"><path d="M866.4576 94.6688H161.4336c-54.528 0-98.7136 41.2672-98.7136 92.16v658.3296c0 50.8928 44.1856 92.16 98.7136 92.16h705.024c54.528 0 98.7136-41.2672 98.7136-92.16V186.8288c-0.0512-50.8928-44.2368-92.16-98.7136-92.16zM468.1728 736.8192h-204.288c-37.5808 0-68.096-30.5664-68.096-68.096V355.2768c0-37.5296 30.5664-68.096 68.096-68.096h193.6384c14.1312 0 25.6 11.4688 25.6 25.6s-11.4688 25.6-25.6 25.6H263.8336c-9.3184 0-16.896 7.5776-16.896 16.896V486.4h188.4672c14.1312 0 25.6 11.4688 25.6 25.6s-11.4688 25.6-25.6 25.6H246.9376v131.1232c0 9.3184 7.5776 16.896 16.896 16.896h204.288c14.1312 0 25.6 11.4688 25.6 25.6s-11.4176 25.6-25.5488 25.6z m364.544-25.6c0 14.1312-11.4688 25.6-25.6 25.6s-25.6-11.4688-25.6-25.6V485.5808c0-14.08-11.4688-25.5488-25.5488-25.5488h-120.3712c-14.08 0-25.5488 11.4688-25.5488 25.5488v225.6384c0 14.1312-11.4688 25.6-25.6 25.6s-25.6-11.4688-25.6-25.6V485.5808c0-42.3424 34.4064-76.7488 76.7488-76.7488h120.3712c42.3424 0 76.7488 34.4064 76.7488 76.7488v225.6384z" fill="#FF623E" p-id="24720"></path></svg>