<?xml version="1.0" standalone="no"?><!DOCTYPE svg PUBLIC "-//W3C//DTD SVG 1.1//EN" "http://www.w3.org/Graphics/SVG/1.1/DTD/svg11.dtd"><svg t="1755855606017" class="icon" viewBox="0 0 1024 1024" version="1.1" xmlns="http://www.w3.org/2000/svg" p-id="33554" xmlns:xlink="http://www.w3.org/1999/xlink" width="200" height="200"><path d="M0 0m227.555556 0l568.888888 0q227.555556 0 227.555556 227.555556l0 568.888888q0 227.555556-227.555556 227.555556l-568.888888 0q-227.555556 0-227.555556-227.555556l0-568.888888q0-227.555556 227.555556-227.555556Z" fill="#3670F8" p-id="33555"></path><path d="M466.944 215.893333v119.068445H230.741333v346.168889h81.92v-37.603556h154.282667v214.016h86.698667v-214.016h154.965333v34.133333h86.016V335.018667H553.642667V215.893333H466.944zM312.661333 562.972444V415.516444h154.282667v147.456H312.661333z m395.946667 0H553.642667V415.516444h154.965333v147.456z" fill="#FFFFFF" p-id="33556"></path></svg>