<?xml version="1.0" standalone="no"?><!DOCTYPE svg PUBLIC "-//W3C//DTD SVG 1.1//EN" "http://www.w3.org/Graphics/SVG/1.1/DTD/svg11.dtd"><svg t="1755855937646" class="icon" viewBox="0 0 1024 1024" version="1.1" xmlns="http://www.w3.org/2000/svg" p-id="13333" xmlns:xlink="http://www.w3.org/1999/xlink" width="200" height="200"><path d="M73.567917 436.500015a420.597831 189.552149 0 1 0 841.195662 0 420.597831 189.552149 0 1 0-841.195662 0Z" fill="#333333" p-id="13334"></path><path d="M91.357601 266.231821a420.597831 189.552149 0 1 0 841.195662 0 420.597831 189.552149 0 1 0-841.195662 0Z" fill="#333333" p-id="13335"></path><path d="M249.042464 187.145587a122.561642 110.465915 0 1 0 245.123284 0 122.561642 110.465915 0 1 0-245.123284 0Z" fill="#27C18F" p-id="13336"></path><path d="M532.057303 201.506313a122.561642 110.465915 0 1 0 245.123283 0 122.561642 110.465915 0 1 0-245.123283 0Z" fill="#35ADDF" p-id="13337"></path><path d="M699.903206 436.500015a122.561642 110.465915 0 1 0 245.123283 0 122.561642 110.465915 0 1 0-245.123283 0Z" fill="#FF5B5C" p-id="13338"></path><path d="M1023.310536 464.010322c-24.222912-260.207551-244.903075-464.010322-511.418021-464.010322C229.176531 0 0.002619 229.221099 0.002619 511.968542s229.173912 511.968542 511.889896 511.968541a83.930816 83.930816 0 0 0 33.566035-160.862154 72.00811 72.00811 0 0 1 38.599367-132.895703H792.595166v-0.18875c122.357163-1.966145 222.174434-97.363522 230.71537-218.021934 0-3.743541 0.094375-7.455623 0-11.199165v-5.583853c0-10.617185 1.368437-21.014162 0-31.253848z m-821.848791 64.819883a92.33019 92.33019 0 1 1 92.31446-92.31446 92.31446 92.31446 0 0 1-92.31446 92.31446z m167.845903-234.993702a92.33019 92.33019 0 1 1 92.314461-92.33019 92.33019 92.33019 0 0 1-92.314461 92.33019z m285.311296 0a92.33019 92.33019 0 1 1 92.314461-92.33019 92.33019 92.33019 0 0 1-92.314461 92.33019z m167.830174 234.993702a92.33019 92.33019 0 1 1 92.314461-92.31446 92.31446 92.31446 0 0 1-92.314461 92.31446z m0 0" fill="#FFBA40" p-id="13339"></path></svg>